<svg width="33" height="30" viewBox="0 0 33 30" fill="none" xmlns="http://www.w3.org/2000/svg">
<path d="M32.99 14.9707C32.99 16.0254 32.1306 16.8516 31.1567 16.8516H29.3233L29.3634 26.2383C29.3634 26.3965 29.352 26.5547 29.3348 26.7129V27.6562C29.3348 28.9512 28.3093 30 27.0431 30H26.1265C26.0634 30 26.0004 30 25.9374 29.9941C25.8572 30 25.777 30 25.6968 30H23.8348H22.4598C21.1937 30 20.1681 28.9512 20.1681 27.6562V26.25V22.5C20.1681 21.4629 19.3489 20.625 18.3348 20.625H14.6681C13.6541 20.625 12.8348 21.4629 12.8348 22.5V26.25V27.6562C12.8348 28.9512 11.8093 30 10.5431 30H9.16813H7.34053C7.25459 30 7.16865 29.9941 7.08272 29.9883C7.01397 29.9941 6.94522 30 6.87646 30H5.9598C4.69365 30 3.66813 28.9512 3.66813 27.6562V21.0938C3.66813 21.041 3.66813 20.9824 3.67386 20.9297V16.8516H1.8348C0.803548 16.8516 0.00146484 16.0312 0.00146484 14.9707C0.00146484 14.4434 0.17334 13.9746 0.574382 13.5645L15.264 0.46875C15.665 0.0585938 16.1233 0 16.5244 0C16.9254 0 17.3838 0.117188 17.7275 0.410156L32.3598 13.5645C32.8181 13.9746 33.0473 14.4434 32.99 14.9707Z" fill="#1B3C73"/>
</svg>
