<svg width="22" height="22" viewBox="0 0 22 22" fill="none" xmlns="http://www.w3.org/2000/svg">
<path d="M15.3783 9.89956C15.5956 9.89956 15.808 9.96407 15.9886 10.0849C16.1692 10.2058 16.31 10.3776 16.3932 10.5786C16.4763 10.7796 16.4981 11.0007 16.4557 11.2141C16.4133 11.4275 16.3087 11.6235 16.1551 11.7773C16.0014 11.9311 15.8057 12.0359 15.5926 12.0783C15.3795 12.1208 15.1587 12.099 14.958 12.0157C14.7573 11.9325 14.5857 11.7915 14.465 11.6106C14.3443 11.4297 14.2799 11.2171 14.2799 10.9995C14.2799 10.7078 14.3956 10.428 14.6016 10.2217C14.8076 10.0154 15.087 9.89956 15.3783 9.89956ZM10.9845 9.89956C11.2018 9.89956 11.4141 9.96407 11.5948 10.0849C11.7754 10.2058 11.9162 10.3776 11.9994 10.5786C12.0825 10.7796 12.1042 11.0007 12.0619 11.2141C12.0195 11.4275 11.9149 11.6235 11.7612 11.7773C11.6076 11.9311 11.4119 12.0359 11.1988 12.0783C10.9857 12.1208 10.7649 12.099 10.5642 12.0157C10.3634 11.9325 10.1919 11.7915 10.0712 11.6106C9.95049 11.4297 9.88607 11.2171 9.88607 10.9995C9.88607 10.7078 10.0018 10.428 10.2078 10.2217C10.4138 10.0154 10.6932 9.89956 10.9845 9.89956ZM6.59071 9.89956C6.80797 9.89956 7.02034 9.96407 7.20098 10.0849C7.38162 10.2058 7.52241 10.3776 7.60555 10.5786C7.68869 10.7796 7.71044 11.0007 7.66806 11.2141C7.62567 11.4275 7.52106 11.6235 7.36743 11.7773C7.21381 11.9311 7.01809 12.0359 6.80501 12.0783C6.59193 12.1208 6.37107 12.099 6.17035 12.0157C5.96964 11.9325 5.79808 11.7915 5.67738 11.6106C5.55668 11.4297 5.49226 11.2171 5.49226 10.9995C5.49226 10.7078 5.60799 10.428 5.81399 10.2217C6.01999 10.0154 6.29939 9.89956 6.59071 9.89956ZM10.9845 0C12.427 0 13.8554 0.284511 15.1881 0.837288C16.5208 1.39007 17.7317 2.20028 18.7517 3.22168C20.8117 5.28449 21.969 8.08226 21.969 10.9995C21.9786 13.5394 21.1004 16.0027 19.4865 17.9622L21.6834 20.1621C21.8359 20.3168 21.9391 20.5132 21.9802 20.7266C22.0212 20.94 21.9982 21.1607 21.9141 21.3611C21.8229 21.559 21.675 21.7253 21.4892 21.8389C21.3034 21.9524 21.0881 22.0082 20.8706 21.999H10.9845C8.07124 21.999 5.27729 20.8402 3.21729 18.7773C1.1573 16.7145 1.90735e-06 13.9168 1.90735e-06 10.9995C1.90735e-06 8.08226 1.1573 5.28449 3.21729 3.22168C5.27729 1.15887 8.07124 0 10.9845 0ZM10.9845 19.7991H18.2233L17.2018 18.7762C17.098 18.6743 17.0154 18.5528 16.9588 18.4188C16.9023 18.2847 16.8728 18.1407 16.8722 17.9952C16.8763 17.7051 16.9948 17.4283 17.2018 17.2252C18.6401 15.7865 19.5358 13.893 19.7362 11.8671C19.9367 9.84132 19.4295 7.80856 18.3011 6.1152C17.1726 4.42185 15.4928 3.17265 13.5477 2.58046C11.6027 1.98826 9.51275 2.08969 7.634 2.86748C5.75526 3.64526 4.20394 5.05128 3.24435 6.84598C2.28475 8.64068 1.97626 10.713 2.37142 12.7099C2.76658 14.7069 3.84095 16.5048 5.41148 17.7975C6.98202 19.0901 8.95155 19.7975 10.9845 19.7991Z" fill="#808080"/>
</svg>
