<svg width="33" height="30" viewBox="0 0 33 30" fill="none" xmlns="http://www.w3.org/2000/svg">
<path d="M8.25076 3.75C8.25076 1.68164 9.73048 0 11.5505 0H29.6989C31.5189 0 32.9987 1.68164 32.9987 3.75V20.625C32.9987 22.6934 31.5189 24.375 29.6989 24.375H17.3662C16.7579 22.8809 15.8246 21.5918 14.6646 20.625H19.7998V18.75C19.7998 17.7129 20.5371 16.875 21.4496 16.875H24.7494C25.6619 16.875 26.3992 17.7129 26.3992 18.75V20.625H29.6989V3.75H11.5505V6.62695C10.5812 5.98828 9.45207 5.625 8.25076 5.625V3.75ZM8.25076 7.5C8.90075 7.5 9.54437 7.6455 10.1449 7.92818C10.7454 8.21086 11.291 8.6252 11.7506 9.14752C12.2103 9.66985 12.5748 10.2899 12.8236 10.9724C13.0723 11.6549 13.2003 12.3863 13.2003 13.125C13.2003 13.8637 13.0723 14.5951 12.8236 15.2776C12.5748 15.9601 12.2103 16.5801 11.7506 17.1025C11.291 17.6248 10.7454 18.0391 10.1449 18.3218C9.54437 18.6045 8.90075 18.75 8.25076 18.75C7.60078 18.75 6.95715 18.6045 6.35664 18.3218C5.75613 18.0391 5.21049 17.6248 4.75088 17.1025C4.29127 16.5801 3.92669 15.9601 3.67795 15.2776C3.42921 14.5951 3.30118 13.8637 3.30118 13.125C3.30118 12.3863 3.42921 11.6549 3.67795 10.9724C3.92669 10.2899 4.29127 9.66985 4.75088 9.14752C5.21049 8.6252 5.75613 8.21086 6.35664 7.92818C6.95715 7.6455 7.60078 7.5 8.25076 7.5ZM6.87416 20.625H9.62221C13.422 20.625 16.5001 24.123 16.5001 28.4355C16.5001 29.2969 15.8865 30 15.1235 30H1.37807C0.615006 30 0.00146484 29.3027 0.00146484 28.4355C0.00146484 24.123 3.07948 20.625 6.87416 20.625Z" fill="black" fill-opacity="0.5"/>
</svg>
