<svg width="33" height="30" viewBox="0 0 33 30" fill="none" xmlns="http://www.w3.org/2000/svg">
<path d="M7.07229 0C3.16861 0 0.00146484 2.51953 0.00146484 5.625V24.375C0.00146484 27.4805 3.16861 30 7.07229 30H28.2848H30.6417C31.9454 30 32.9987 29.1621 32.9987 28.125C32.9987 27.0879 31.9454 26.25 30.6417 26.25V22.5C31.9454 22.5 32.9987 21.6621 32.9987 20.625V1.875C32.9987 0.837891 31.9454 0 30.6417 0H28.2848H7.07229ZM7.07229 22.5H25.9278V26.25H7.07229C5.76861 26.25 4.71535 25.4121 4.71535 24.375C4.71535 23.3379 5.76861 22.5 7.07229 22.5ZM9.42923 8.4375C9.42923 7.92187 9.95955 7.5 10.6077 7.5H24.7494C25.3975 7.5 25.9278 7.92187 25.9278 8.4375C25.9278 8.95313 25.3975 9.375 24.7494 9.375H10.6077C9.95955 9.375 9.42923 8.95313 9.42923 8.4375ZM10.6077 11.25H24.7494C25.3975 11.25 25.9278 11.6719 25.9278 12.1875C25.9278 12.7031 25.3975 13.125 24.7494 13.125H10.6077C9.95955 13.125 9.42923 12.7031 9.42923 12.1875C9.42923 11.6719 9.95955 11.25 10.6077 11.25Z" fill="black" fill-opacity="0.5"/>
</svg>
